<?xml version="1.0" encoding="UTF-8"?>
<svg width="24px" height="24px" viewBox="0 0 24 24" version="1.1" xmlns="http://www.w3.org/2000/svg">
    <path d="M12,0 C8.74,0 8.333,0.015 7.053,0.072 C5.775,0.132 4.905,0.333 4.14,0.63 C3.351,0.936 2.681,1.347 2.014,2.014 C1.347,2.681 0.935,3.35 0.63,4.14 C0.333,4.905 0.131,5.775 0.072,7.053 C0.012,8.333 0,8.74 0,12 C0,15.26 0.015,15.667 0.072,16.947 C0.132,18.224 0.333,19.095 0.63,19.86 C0.936,20.648 1.347,21.319 2.014,21.986 C2.681,22.652 3.35,23.065 4.14,23.37 C4.906,23.666 5.776,23.869 7.053,23.928 C8.333,23.988 8.74,24 12,24 C15.26,24 15.667,23.985 16.947,23.928 C18.224,23.868 19.095,23.666 19.86,23.37 C20.648,23.064 21.319,22.652 21.986,21.986 C22.652,21.319 23.065,20.651 23.37,19.86 C23.666,19.095 23.869,18.224 23.928,16.947 C23.988,15.667 24,15.26 24,12 C24,8.74 23.985,8.333 23.928,7.053 C23.868,5.776 23.666,4.904 23.37,4.14 C23.064,3.351 22.652,2.681 21.986,2.014 C21.319,1.347 20.651,0.935 19.86,0.63 C19.095,0.333 18.224,0.131 16.947,0.072 C15.667,0.012 15.26,0 12,0 Z M12,2.16 C15.203,2.16 15.585,2.176 16.85,2.231 C18.02,2.286 18.655,2.48 19.077,2.646 C19.63,2.863 20.027,3.123 20.448,3.542 C20.867,3.962 21.127,4.359 21.345,4.912 C21.51,5.334 21.705,5.969 21.76,7.139 C21.815,8.404 21.831,8.786 21.831,11.989 C21.831,15.192 21.815,15.574 21.76,16.839 C21.705,18.009 21.51,18.644 21.345,19.066 C21.127,19.619 20.867,20.016 20.448,20.437 C20.028,20.856 19.631,21.116 19.077,21.334 C18.655,21.499 18.02,21.694 16.85,21.749 C15.585,21.804 15.203,21.82 12,21.82 C8.797,21.82 8.415,21.804 7.15,21.749 C5.98,21.694 5.345,21.499 4.923,21.334 C4.37,21.116 3.973,20.856 3.552,20.437 C3.133,20.017 2.873,19.62 2.655,19.066 C2.49,18.644 2.295,18.009 2.24,16.839 C2.185,15.574 2.169,15.192 2.169,11.989 C2.169,8.786 2.185,8.404 2.24,7.139 C2.295,5.969 2.49,5.334 2.655,4.912 C2.873,4.359 3.133,3.962 3.552,3.542 C3.972,3.123 4.369,2.863 4.923,2.646 C5.345,2.481 5.98,2.286 7.15,2.231 C8.415,2.176 8.797,2.16 12,2.16 Z M12,5.838 C8.597,5.838 5.838,8.597 5.838,12 C5.838,15.403 8.597,18.162 12,18.162 C15.403,18.162 18.162,15.403 18.162,12 C18.162,8.597 15.403,5.838 12,5.838 Z M12,16 C9.791,16 8,14.209 8,12 C8,9.791 9.791,8 12,8 C14.209,8 16,9.791 16,12 C16,14.209 14.209,16 12,16 Z M19.846,5.595 C19.846,6.39 19.2,7.036 18.405,7.036 C17.61,7.036 16.964,6.39 16.964,5.595 C16.964,4.8 17.61,4.154 18.405,4.154 C19.199,4.154 19.846,4.8 19.846,5.595 Z" fill="#FFFFFF"></path>
</svg>