<?xml version="1.0" encoding="UTF-8"?>
<svg width="24px" height="24px" viewBox="0 0 24 24" version="1.1" xmlns="http://www.w3.org/2000/svg">
    <path d="M12.525.02c1.31-.02 2.61.03 3.91.19 1.5.19 2.9.73 4.11 1.58 1.21.85 2.2 2 2.89 3.34.78 1.53 1.11 3.23 1.25 4.93.09 1.11.1 2.24.05 3.35-.05 1.21-.21 2.42-.55 3.58-.44 1.45-1.17 2.8-2.19 3.94-1.02 1.14-2.32 2.02-3.76 2.51-1.44.49-2.97.65-4.49.62-1.49-.02-2.97-.24-4.39-.67-1.42-.43-2.73-1.17-3.8-2.21-1.07-1.04-1.88-2.32-2.37-3.73-.49-1.41-.67-2.91-.66-4.4.01-1.36.16-2.73.54-4.03.47-1.63 1.32-3.12 2.48-4.33C6.68 2.54 8.08 1.6 9.64 1c.94-.35 1.93-.59 2.94-.69.63-.07 1.31-.11 1.95-.29zm2.47 6.08c-.98-.35-2.01-.59-3.06-.64-1.46-.07-2.95.04-4.35.52-1.41.47-2.68 1.33-3.61 2.51-.94 1.18-1.51 2.63-1.69 4.13-.18 1.49-.01 3.04.51 4.44.52 1.4 1.42 2.65 2.61 3.54 1.19.89 2.63 1.41 4.11 1.53 1.48.12 2.99-.13 4.33-.75 1.34-.62 2.46-1.63 3.21-2.88.58-.98.94-2.09 1.07-3.22.14-1.24.11-2.51-.1-3.74-.21-1.24-.62-2.46-1.33-3.49-.7-1.03-1.67-1.87-2.78-2.37.98 2.65 1.96 5.29 2.93 7.94-.97 2.7-1.94 5.39-2.92 8.09-.83-.02-1.66-.02-2.49 0-.97-2.69-1.94-5.38-2.91-8.07.97-2.65 1.95-5.29 2.93-7.94.51 0 1.03 0 1.54.01v-.11z" fill="#FFFFFF"></path>
</svg>