<?xml version="1.0" encoding="UTF-8"?>
<svg width="24px" height="24px" viewBox="0 0 24 24" version="1.1" xmlns="http://www.w3.org/2000/svg">
    <path d="M23.4985,7.15139 C23.3666,6.66339 23.1056,6.21839 22.7386,5.85439 C22.3716,5.49039 21.9236,5.23139 21.4326,5.10139 C19.5946,4.64839 12.0006,4.64839 12.0006,4.64839 C12.0006,4.64839 4.40659,4.64839 2.56859,5.10139 C2.07759,5.23139 1.62959,5.49039 1.26259,5.85439 C0.895594,6.21839 0.634594,6.66339 0.502594,7.15139 C0.168354,9.03764 -0.000646393,10.9516 -6.39343e-05,12.8684 C-0.000646393,14.7854 0.168354,16.6994 0.502594,18.5854 C0.634594,19.0734 0.895594,19.5184 1.26259,19.8824 C1.62959,20.2464 2.07759,20.5054 2.56859,20.6354 C4.40659,21.0884 12.0006,21.0884 12.0006,21.0884 C12.0006,21.0884 19.5946,21.0884 21.4326,20.6354 C21.9236,20.5054 22.3716,20.2464 22.7386,19.8824 C23.1056,19.5184 23.3666,19.0734 23.4985,18.5854 C23.8328,16.6994 24.0018,14.7854 24.0012,12.8684 C24.0018,10.9516 23.8328,9.03764 23.4985,7.15139 M9.60159,16.3484 L9.60159,9.38839 L15.8406,12.8684 L9.60159,16.3484" fill="#FFFFFF"></path>
</svg>